<svg xmlns="http://www.w3.org/2000/svg" version="1.1" xmlns:xlink="http://www.w3.org/1999/xlink" xmlns:svgjs="http://svgjs.dev/svgjs" width="2000" height="2024" viewBox="0 0 2000 2024"><g transform="matrix(1,0,0,1,1.767868852458946,0.8194331983804659)"><svg viewBox="0 0 244 247" data-background-color="#ffffff" preserveAspectRatio="xMidYMid meet" height="2024" width="2000" xmlns="http://www.w3.org/2000/svg" xmlns:xlink="http://www.w3.org/1999/xlink"><g id="tight-bounds" transform="matrix(1,0,0,1,-0.21567999999999188,-0.09999999999999432)"><svg viewBox="0 0 244.43135999999998 247.2" height="247.2" width="244.43135999999998"><g><svg></svg></g><g><svg viewBox="0 0 244.43135999999998 247.2" height="247.2" width="244.43135999999998"><g transform="matrix(1,0,0,1,0,54.186239999999984)"><svg viewBox="0 0 244.43135999999998 138.82752000000002" height="138.82752000000002" width="244.43135999999998"><g><svg viewBox="0 0 244.43135999999998 138.82752000000002" height="138.82752000000002" width="244.43135999999998"><g><svg viewBox="0 0 244.43135999999998 138.82752000000002" height="138.82752000000002" width="244.43135999999998"><g><svg viewBox="0 0 244.43135999999998 138.82752000000002" height="138.82752000000002" width="244.43135999999998"><g id="textblocktransform"><svg viewBox="0 0 244.43135999999998 138.82752000000002" height="138.82752000000002" width="244.43135999999998" id="textblock"><g><svg viewBox="0 0 244.43135999999998 138.82752000000002" height="138.82752000000002" width="244.43135999999998"><g transform="matrix(1,0,0,1,0,0)"><svg width="244.43135999999998" viewBox="2.75 -35.1 61.8 35.1" height="138.82752000000002" data-palette-color="#bb84e8"><path d="M17.35 0L2.75 0 2.75-1.65Q4.65-1.7 5.35-2.53 6.05-3.35 6.13-4.78 6.2-6.2 6.2-8.05L6.2-8.05 6.2-29.05Q6.2-30.4 6.25-31.38 6.3-32.35 6.35-33L6.35-33Q5.45-32.95 4.55-32.9 3.65-32.85 2.75-32.8L2.75-32.8 2.75-35Q5.5-35.05 8.28-35.08 11.05-35.1 14.05-35.1L14.05-35.1Q19.85-35.1 23.13-33.05 26.4-31 26.3-26.55L26.3-26.55Q26.3-24.95 25.38-23.35 24.45-21.75 22.63-20.53 20.8-19.3 18.05-18.8L18.05-18.8 18.05-18.7Q23.55-18.7 26.35-16.18 29.15-13.65 29.15-9.8L29.15-9.8Q29.15-6.75 27.6-4.55 26.05-2.35 23.4-1.18 20.75 0 17.35 0L17.35 0ZM10.4-2L10.4-2Q11.2-1.95 12.33-1.93 13.45-1.9 14.43-1.9 15.4-1.9 15.7-1.9L15.7-1.9Q19.55-1.9 21.93-3.83 24.3-5.75 24.3-9.5L24.3-9.5Q24.3-12.55 23.1-14.25 21.9-15.95 19.95-16.65 18-17.35 15.7-17.35L15.7-17.35Q14.2-17.35 12.98-17.32 11.75-17.3 10.55-17.2L10.55-17.2 10.55-5.9Q10.55-4.55 10.53-3.6 10.5-2.65 10.4-2ZM10.55-28.45L10.55-19.15 14.2-19.25Q17.05-19.3 18.7-20.43 20.35-21.55 21.08-23.25 21.8-24.95 21.75-26.8L21.75-26.8Q21.7-29.5 20.53-30.9 19.35-32.3 17.65-32.8 15.95-33.3 14.3-33.3L14.3-33.3Q12.65-33.3 11.85-32.85 11.05-32.4 10.8-31.35 10.55-30.3 10.55-28.45L10.55-28.45ZM44.65 0L33.4 0 33.4-1.65Q35.3-1.75 36-2.53 36.7-3.3 36.77-4.67 36.85-6.05 36.85-7.8L36.85-7.8 36.85-29.4Q36.85-30.4 36.9-31.33 36.95-32.25 37-33L37-33Q36.1-32.95 35.2-32.9 34.3-32.85 33.4-32.8L33.4-32.8 33.4-35 44.65-35 44.65-33.35Q42.8-33.3 42.07-32.5 41.35-31.7 41.27-30.35 41.2-29 41.2-27.2L41.2-27.2 41.2-19 44.95-19 51.2-28.85Q51.85-29.85 52.8-31.05 53.75-32.25 54.75-33.05L54.75-33.05Q54-33 53.22-33 52.45-33 51.7-32.95L51.7-32.95 51.7-35 62.45-35 62.45-33.35Q60.35-33.2 58.7-32.65 57.05-32.1 55.55-30.73 54.05-29.35 52.35-26.6L52.35-26.6 47.45-18.8Q48.9-17.95 49.8-16.82 50.7-15.7 51.6-14.55L51.6-14.55 57.2-7.1Q59.1-4.6 60.32-3.43 61.55-2.25 62.52-1.95 63.5-1.65 64.55-1.65L64.55-1.65 64.55 0 58.45 0Q57.95 0 57.12-0.7 56.3-1.4 55.35-2.53 54.4-3.65 53.4-4.9L53.4-4.9 47.4-13Q46.45-14.25 45.5-15.38 44.55-16.5 43.65-17.05L43.65-17.05 41.2-17 41.2-5.95Q41.2-4.6 41.17-3.63 41.15-2.65 41.05-2L41.05-2Q41.95-2.05 42.85-2.1 43.75-2.15 44.65-2.2L44.65-2.2 44.65 0Z" opacity="1" transform="matrix(1,0,0,1,0,0)" fill="#bb84e8" class="wordmark-text-0" data-fill-palette-color="primary" id="text-0"></path></svg></g></svg></g></svg></g></svg></g><g></g></svg></g></svg></g></svg></g><path d="M0 48.186L0 1 244.431 1 244.431 48.186 231.912 48.186 231.912 13.52 12.52 13.52 12.52 48.186 0 48.186M0 199.014L0 246.2 244.431 246.2 244.431 199.014 231.912 199.014 231.912 233.68 12.52 233.68 12.52 199.014 0 199.014" fill="#bb84e8" stroke="transparent" data-fill-palette-color="tertiary"></path></svg></g><defs></defs></svg><rect width="244.43135999999998" height="247.2" fill="none" stroke="none" visibility="hidden"></rect></g></svg></g></svg>